<?xml version="1.0" encoding="utf-8"?>
<!-- Generator: Adobe Illustrator 24.0.0, SVG Export Plug-In . SVG Version: 6.00 Build 0)  -->
<svg version="1.1" id="Layer_1" xmlns="http://www.w3.org/2000/svg" xmlns:xlink="http://www.w3.org/1999/xlink" x="0px" y="0px"
	 viewBox="0 0 40 40" style="enable-background:new 0 0 40 40;" xml:space="preserve">
<style type="text/css">
	.st0{fill:#FFFFFF;}
	.st1{fill:none;stroke:#FFFFFF;stroke-width:3.5;stroke-linecap:round;stroke-miterlimit:10;}
	.st2{fill:none;stroke:#FFFFFF;stroke-width:3.5;stroke-linecap:round;stroke-linejoin:round;}
</style>
<title>Logo Artkey</title>
<g id="Logo_Mark">
	<g id="_1.1">
		<path id="Bot" class="st0" d="M40,37.7c0-0.6-0.2-1.3-0.6-1.8c-0.2-0.3-0.4-0.4-0.8-0.5c-0.4-0.1-0.9,0.1-1.2,0.5
			c-0.5,0.8-1.1,1.4-1.8,2c-0.4,0.2-0.6,0.7-0.5,1.1c0.1,0.6,0.9,1,2.3,1c0.7,0,1.4-0.2,1.9-0.7C39.8,38.9,40,38.3,40,37.7z"/>
		<path class="st1" d="M5,18.2c7.2-7.8,17.6-12,28.2-11.4"/>
		<path class="st2" d="M23,2.3c3.1-0.5,6.3-0.7,9.4-0.5"/>
		<path class="st1" d="M6.5,9.7c3.6-2.8,7.7-4.9,12-6.3"/>
		<path class="st2" d="M10.8,20.2c6.2-5.9,14.8-8.6,23.2-7.5"/>
		<path class="st2" d="M1.8,38.2C2.2,33,4.2,27.9,7.5,23.7"/>
		<path class="st2" d="M7.3,38.2c2.2-14.4,16.4-23.6,27.6-19.4"/>
		<path class="st2" d="M18.4,38.2c0.9-5.8,7.8-11,12.2-9.3c2.7,1.8-5.5,4.5-6.3,9.3"/>
		<path class="st0" d="M12.1,1.3c-0.1-0.7-0.6-1.2-1.3-1.2C10.3,0,9.8,0,9.3,0c-0.5,0-1,0-1.6,0C7,0,6.4,0.5,6.2,1.1
			C6,1.7,5.8,2.2,5.7,2.8C5.6,3.5,5.8,4.2,6.4,4.5C7,4.8,7.7,4.7,8.3,4.4c0.1,0,1.3-0.8,1.6-0.9c0.4-0.2,1-0.4,1.5-0.7
			C11.9,2.5,12.2,1.9,12.1,1.3z"/>
		<path class="st2" d="M12.9,38.2c1.2-7.3,9-15.7,17-14.9c1.5,0.2,2.9,0.7,4.1,1.5c2.4,1.8,3.3,5.1,2,7.9c-1.3,2.6-3.8,2.7-5.6,5.4"
			/>
	</g>
</g>
</svg>
